<svg width="801" height="501" viewBox="0 0 801 501" fill="none" xmlns="http://www.w3.org/2000/svg">
<path d="M382.888 1.08378C383.348 1.00127 383.808 0.91876 384.936 1.15637C398.955 2.27609 412.315 2.95134 425.65 3.9588C429.181 4.22554 432.754 5.18498 436.098 6.40387C443.03 8.93124 449.792 11.9239 456.685 14.5655C459.733 15.7336 463.216 16.0157 465.981 17.6056C468.884 19.2751 471.164 22.0285 474.704 25.1901C478.407 25.1213 483.809 26.9953 486.668 31.2565C489.461 35.4194 492.437 36.0845 496.574 35.6949C496.574 35.6949 496.823 35.6769 496.885 36.1692C498.095 38.7099 499.092 40.8646 500.435 42.776C501.714 44.5948 503.353 46.1594 504.834 47.8357C504.586 48.1614 504.337 48.4871 504.089 48.8128C506.322 49.1649 508.555 49.5171 510.788 49.8693C510.788 49.8693 511.057 49.9954 511.037 50.5672C515.033 58.1784 518.494 65.6251 523.247 72.1256C526.894 77.1111 531.312 81.3804 531.95 87.934C532.043 88.8953 532.1 90.3376 532.694 90.697C537.291 93.4782 536.518 98.4794 537.837 102.593C538.332 104.134 538.184 106.026 539.032 107.283C544.223 114.972 545.526 123.026 541.63 131.76C540.88 131.839 540.45 131.873 539.62 131.894C534.865 131.183 534.869 135.246 533.315 137.46C531.278 140.36 529.286 143.991 525.267 142.318C517.804 139.212 510.731 135.185 503.367 131.822C495.791 128.363 488.311 124.298 480.341 122.184C467.865 118.873 455.077 116.798 441.949 117.738C436.079 118.159 429.972 116.344 424.229 117.224C413.242 118.908 402.415 121.692 391.575 124.25C388.735 124.92 386.035 126.312 383.38 127.599C380.7 128.899 378.25 130.691 375.531 131.885C371.645 133.593 366.883 134.195 367.031 139.994C367.018 139.944 367.105 139.998 366.669 139.962C362.63 139.274 360.196 140.742 357.665 143.409C354.303 146.949 349.929 149.509 346.394 152.91C342.395 156.756 339.195 161.484 334.978 165.034C332.083 167.47 326.918 167.504 327.837 173.275C327.902 173.685 326.424 174.178 326.049 174.848C323.629 179.169 321.317 183.549 318.902 188.199C318.575 188.775 318.315 189.062 318.004 188.947C313.145 174.839 305.3 162.895 295.079 152.837C286.992 144.878 277.684 138.158 268.707 130.62C264.997 128.16 261.498 125.968 258 123.775C260.416 104.029 267.227 85.8325 277.532 68.908C289.954 48.5055 306.517 32.2417 327.724 19.864C333.867 18.0167 339.962 17.2552 344.445 14.1591C351.288 9.43341 359.228 8.75856 366.537 5.94946C371.829 3.91575 377.427 2.67701 382.888 1.08378Z" fill="#224E70"/>
<path d="M738.198 231.953C748.77 238.63 756.649 247.986 763.495 258.182C775.702 276.361 782.084 296.572 783.59 319.22C783.83 323.693 783.91 327.347 783.841 331.306C783.444 335.741 783.197 339.87 782.786 344.354C782.114 347.802 781.607 350.895 780.998 354.324C780.641 355.775 780.385 356.892 780.06 358.325C779.941 359.068 779.89 359.495 779.606 360.2C777.504 366.297 775.635 372.116 773.559 378.129C773.187 378.862 773.022 379.4 772.706 380.201C772.295 381.226 772.036 381.989 771.505 382.967C769.824 385.79 768.415 388.396 766.741 391.208C758.304 401.911 750.129 412.41 741.621 422.98C735.434 427.642 729.83 432.602 723.677 436.746C711.618 444.87 698.574 450.88 684.018 452.647C685.427 446.16 686.901 440.143 688.22 434.093C688.513 432.752 688.819 430.901 688.158 429.956C685.612 426.317 685.729 422.6 686.559 418.51C686.923 416.714 686.566 414.499 685.811 412.796C682.531 405.39 683.748 397.723 684.583 390.223C685.596 381.124 688.587 372.138 688.705 363.076C688.835 353.081 686.703 343.053 685.504 333.046C685.037 329.146 684.861 325.136 683.77 321.404C682.394 316.697 680.008 312.293 678.458 307.626C677.366 304.34 677.725 301.371 680.945 298.768C684.551 295.854 683.442 292.457 678.942 290.543C680.15 288.842 681.221 287.409 682.436 286.112C684.966 283.413 687.572 280.785 690.477 278.049C692.198 276.811 693.683 275.746 694.966 274.477C703.705 265.834 712.372 257.117 721.122 248.485C726.762 242.921 732.503 237.46 738.198 231.953ZM685.54 287.825C685.191 287.82 684.842 287.812 684.494 287.829C684.485 287.829 684.478 288.226 684.488 288.227C684.835 288.255 685.184 288.257 685.54 287.825Z" fill="#828D95"/>
<path d="M738.061 231.636C732.503 237.46 726.762 242.921 721.122 248.485C712.372 257.117 703.705 265.834 694.966 274.477C693.683 275.746 692.198 276.811 690.169 277.762C684.968 277.892 680.393 278.125 675.844 278.61C673.314 278.879 671.229 279.458 671.461 275.497C671.525 274.416 669.324 272.812 667.847 272.108C664.153 270.348 658.038 269.9 656.932 267.243C654.453 261.292 647.778 261.151 644.874 255.717C641.325 249.073 635.075 253.952 629.601 255.039C621.814 252.528 614.383 250.073 606.87 247.343C604.066 244.256 607.026 240.96 606.285 237.689C608.535 222.339 605.614 207.8 600.599 193.889C594.844 177.923 584.995 164.422 571.419 153.97C561.739 146.517 551.038 141.102 538.876 138.575C539.288 136.129 539.689 134.083 540.09 132.037C540.52 132.004 540.949 131.97 542.057 131.911C544.141 129.633 545.546 127.382 546.951 125.13C552.768 122.762 558.534 120.254 564.413 118.051C603.943 103.235 646.856 116.048 668.938 149.416C680.732 167.238 685.019 186.824 681.291 208.388C702.288 211.105 721.37 218.157 738.061 231.636Z" fill="#566772"/>
<path d="M783.991 331C783.911 327.347 783.83 323.693 783.764 319.592C784.485 318.312 785.19 317.48 787.008 315.334C786.674 323.383 796.28 325.613 794.203 333.542C794.099 333.941 794.372 334.551 794.655 334.922C803.152 346.045 799.965 358.991 799.453 371.136C799.028 381.221 796.678 391.436 793.695 401.137C791.166 409.362 787.196 417.36 782.626 424.686C777.045 433.631 770.848 442.401 763.671 450.082C756.376 457.888 747.95 464.808 739.291 471.115C732.664 475.942 725.295 480.4 717.572 482.944C695.678 490.157 674.078 498.885 650.249 498.155C641.04 497.872 631.781 499.818 622.536 499.908C595.782 500.168 569.023 500 542.265 500C494.389 500 446.512 500 398.636 500C360.55 500 322.464 500.056 284.378 499.955C276.416 499.934 268.453 499.009 260.494 499.065C241.699 499.196 222.907 499.764 204.112 499.942C198.321 499.997 192.523 499.121 186.727 499.113C181.266 499.105 175.783 500.146 170.348 499.892C160.941 499.453 151.544 498.554 142.181 497.512C130.215 496.181 118.25 494.741 106.359 492.877C102.046 492.201 97.7632 490.553 93.7803 488.681C81.0752 482.71 68.0669 477.175 56.0737 469.975C49.013 465.737 43.5674 458.751 37.5605 452.834C33.6903 449.021 29.5787 445.276 26.5354 440.841C21.3426 433.275 15.5739 425.685 12.4254 417.22C5.78878 399.377 -1.14483 381.332 0.996006 361.574C1.99204 352.382 2.10797 343.087 6.15771 334.398C8.42114 329.541 9.4983 324.142 11.5899 319.189C12.5556 316.903 14.6706 315.102 16.6346 313.043C17.0047 313.005 17.0485 313.048 17.0358 313.363C17.295 314.435 17.567 315.192 17.9034 316.384C17.5841 321.564 17.2005 326.309 16.5863 331.379C16.2326 335.138 16.1095 338.571 15.6316 342.057C13.5181 345.83 10.7139 349.422 10.2323 353.302C9.39738 360.029 10.1145 366.937 9.97095 373.764C9.79633 382.067 11.8306 389.766 15.516 397.153C16.6803 399.486 17.0817 402.19 18.1438 404.587C21.4241 411.989 23.6452 420.28 28.5235 426.451C35.0928 434.76 41.1836 443.529 49.5629 450.624C58.5847 458.263 67.429 465.811 78.0782 471.03C82.1946 473.048 86.251 475.226 90.4921 476.942C96.6284 479.425 102.737 482.551 109.158 483.65C128.646 486.984 148.002 491.152 168.012 491.147C190.85 491.142 213.684 492.597 236.527 492.902C250.81 493.093 265.104 492.21 279.396 492.036C292.978 491.87 306.566 491.87 320.148 492.035C334.94 492.214 349.728 492.916 364.518 492.927C378.141 492.937 391.765 492.066 405.388 492.073C419.767 492.08 434.145 492.753 448.526 492.948C452.978 493.009 457.44 492.2 461.894 492.232C477.443 492.344 492.99 492.813 508.538 492.827C519.253 492.837 529.968 492.143 540.684 492.103C547.402 492.077 554.124 492.998 560.84 492.943C581.957 492.769 603.082 492.634 624.183 491.891C637.397 491.425 650.582 489.991 663.761 488.782C667.839 488.408 671.893 487.51 675.887 486.556C681.805 485.142 687.775 483.796 693.517 481.824C703.182 478.507 712.803 475 722.212 471.027C727.805 468.664 733.116 465.507 738.26 462.244C742.987 459.246 747.86 456.147 751.697 452.158C757.287 446.344 762.558 440.049 766.937 433.293C771.004 427.019 777.301 421.982 778.521 413.973C778.794 412.18 779.198 410.391 779.724 408.655C782.654 398.987 785.716 389.358 788.575 379.669C789.901 375.177 791.821 370.575 791.799 366.031C791.756 356.871 792.774 347.392 787.97 338.828C787.718 338.377 787.984 337.635 788.012 337.028C788.111 334.896 788.211 332.764 788.329 330.225C786.229 330.6 785.11 330.8 783.991 331Z" fill="#DADCDD"/>
<path d="M16.8169 331.054C17.2005 326.309 17.5842 321.564 18.0132 316.024C18.0473 314.477 18.036 313.726 18.2319 312.688C18.5601 311.246 18.6812 310.091 18.8023 308.936C21.8908 291.793 27.1725 275.44 36.8009 260.771C56.1828 231.242 82.7452 212.584 118.165 207.617C118.165 203.601 118.276 199.69 118.147 195.788C116.959 159.9 146.543 127.14 175.022 117.642C200.258 109.226 224.379 110.809 248.496 120.772C251.439 121.988 254.471 122.99 257.765 123.999C261.568 126.099 265.067 128.291 268.522 131.004C263.999 132.826 261.826 129.051 258.626 127.297C248.478 121.736 236.18 122.179 226.149 116.084C225.898 115.931 225.495 116.024 225.163 116.012C215.954 115.674 206.746 115.152 197.536 115.107C194.518 115.092 191.446 116.151 188.484 117.014C182.225 118.836 176.022 120.849 169.802 122.803C169.501 122.898 169.269 123.196 168.99 123.379C160.815 128.733 152.627 134.069 144.482 139.469C143.851 139.886 143.271 140.683 143.081 141.412C141.914 145.871 135.838 147.56 136.504 153.119C136.559 153.579 134.995 154.207 134.215 154.798C133.324 155.473 132.227 156.033 131.638 156.921C127.386 163.325 125.86 170.725 123.977 178.014C123.361 180.397 121.32 182.544 121.158 184.884C120.758 190.68 120.729 196.552 121.181 202.344C121.683 208.774 121.2 209.726 114.715 211.291C110.784 212.239 106.913 213.454 103.059 214.686C101.136 215.3 99.3524 216.769 97.436 216.912C87.3307 217.662 79.8526 223.744 72.0789 229.148C69.7238 230.786 68.0593 233.383 65.9015 235.347C63.7421 237.312 61.0729 238.772 59.1327 240.912C53.6671 246.94 48.2766 253.057 43.2116 259.421C39.151 264.523 34.9286 269.699 32.0519 275.477C29.7199 280.161 29.2822 285.788 28.0022 290.998C28 291 27.9969 291.004 27.6233 291.063C26.6224 291.622 25.5502 292.037 25.4361 292.635C24.2034 299.091 23.044 305.564 22.029 312.057C21.4675 315.649 21.1409 319.283 20.8462 322.91C20.5114 327.031 19.6863 331.248 20.211 335.276C21.4677 344.921 22.9252 354.591 25.1984 364.035C26.8862 371.047 29.0669 378.253 32.6578 384.423C38.4842 394.436 44.7585 404.108 52.8128 412.868C63.7448 424.758 76.0424 434.185 90.2294 441.422C93.7173 443.201 97.6425 444.101 101.268 445.639C105.035 447.236 108.524 449.999 112.414 450.7C122.275 452.476 132.293 453.383 142.248 454.637C141.478 453.773 140.709 452.909 139.939 452.045C142.112 451.149 144.229 449.714 146.472 449.476C150.469 449.052 151.89 446.251 151.391 443.399C150.987 441.093 148.503 439.078 146.751 437.102C145.155 435.302 142.901 433.984 141.639 432.006C137.54 425.581 134.224 418.61 129.72 412.504C125.864 407.277 123.714 401.975 123.943 395.531C124.024 393.271 123.854 390.82 123.05 388.747C120.721 382.744 117.85 376.997 119.825 370.169C120.384 368.236 119.635 365.912 119.426 363.773C118.464 353.9 118.477 344.13 123.52 335.173C124.474 333.479 126.48 332.377 128.156 331.355C128.313 336.737 128.313 341.768 128.313 346.917C127.916 346.917 127.082 346.917 126.855 346.917C126.658 350.712 126.551 354.135 126.284 357.545C125.97 361.564 124.945 365.618 125.266 369.573C125.7 374.935 127.18 380.206 128.096 385.535C128.793 389.595 128.519 394.018 130.064 397.696C133.819 406.634 137.3 415.869 144.12 423.12C148.3 427.563 152.738 431.766 157.11 436.025C162.768 441.539 172.701 440.097 176.902 448.131C177.218 448.735 178.68 448.853 179.639 448.99C183.942 449.605 186.914 451.239 185.098 456.983C222.414 456.983 259.195 456.983 296.447 456.992C306.287 456.995 315.656 456.989 325.477 456.988C328.944 456.987 331.958 456.982 335.436 456.986C338.865 456.997 341.883 457.333 344.771 456.865C346.3 456.617 347.603 454.973 349.318 454.029C350.71 455.349 351.791 456.599 352.57 458.117C350.129 458.555 347.99 458.875 345.851 458.875C284.108 458.862 222.364 458.966 160.622 458.672C145.425 458.599 130.251 457.881 115.32 453.769C95.928 448.429 78.3997 439.812 63.2824 426.653C55.8249 420.161 49.1619 412.757 42.0838 405.429C40.6325 403.044 39.2369 400.996 37.8111 398.709C37.6007 398.181 37.3443 397.998 36.916 397.652C36.4758 396.926 36.131 396.469 35.7164 395.684C33.6891 392.211 31.7316 389.067 29.7614 385.693C29.5803 385.18 29.3344 385.007 29.0107 384.968C29.0104 384.991 29.0539 384.97 29.0267 384.588C23.7842 371.513 19.8558 358.474 18.3633 344.775C17.8648 340.2 17.3333 335.628 16.8169 331.054ZM148.508 455.965C149.153 455.748 149.799 455.531 150.445 455.315C150.355 454.926 150.265 454.538 150.174 454.15C149.009 454.348 147.844 454.547 146.679 454.745C147.063 455.14 147.447 455.535 148.508 455.965Z" fill="#2595C0"/>
<path d="M496.467 35.5176C492.506 36.2155 489.53 35.5505 486.737 31.3876C483.878 27.1264 478.477 25.2523 474.773 25.3212C471.234 22.1596 468.954 19.4062 466.051 17.7367C463.286 16.1468 459.803 15.8646 456.755 14.6965C449.862 12.0549 443.1 9.06229 436.167 6.53492C432.824 5.31603 429.25 4.35659 425.72 4.08985C412.385 3.08239 399.024 2.40714 385.355 1.34701C426.852 -2.96598 464.097 7.88873 496.467 35.5176Z" fill="#264A67"/>
<path d="M546.887 124.717C545.546 127.382 544.141 129.633 542.378 131.865C545.596 123.157 544.293 115.103 539.102 107.414C538.253 106.157 538.401 104.265 537.907 102.724C536.588 98.6105 537.361 93.6092 532.763 90.828C532.169 90.4687 532.113 89.0264 532.019 88.0651C531.382 81.5115 526.963 77.2422 523.317 72.2566C518.563 65.7562 515.103 58.3095 511.116 50.8467C528.471 68.7852 538.857 90.7847 544.947 115.02C545.715 118.079 546.205 121.208 546.887 124.717Z" fill="#264A67"/>
<path d="M382.541 1.16589C377.496 2.80804 371.899 4.04678 366.607 6.08049C359.297 8.88959 351.358 9.56444 344.515 14.2902C340.032 17.3862 333.937 18.1477 328.125 19.9276C342.34 10.2783 358.648 5.11345 375.741 2.07181C377.859 1.69501 379.996 1.43246 382.541 1.16589Z" fill="#264A67"/>
<path d="M510.741 49.693C508.625 49.6481 506.392 49.296 504.159 48.9438C504.407 48.6181 504.655 48.2925 504.904 47.9668C503.423 46.2904 501.783 44.7258 500.505 42.907C499.162 40.9956 498.165 38.8409 497.004 36.4153C501.535 40.4872 506.08 44.9364 510.741 49.693Z" fill="#264A67"/>
<path d="M18.6066 308.731C18.6811 310.091 18.5601 311.246 17.9876 312.704C17.5363 313.008 17.0485 313.048 17.0485 313.048C17.0485 313.048 17.0046 313.005 16.9822 312.983C16.9598 311.035 16.9598 309.11 16.9598 305.935C17.8553 307.534 18.1331 308.03 18.6066 308.731Z" fill="#DADCDD"/>
<path d="M606.951 247.619C614.383 250.073 621.814 252.528 629.826 255.283C648.529 267.991 659.175 284.881 661.19 307.346C661.356 309.725 661.74 311.712 661.654 313.678C661.066 327.112 658.247 340.012 651.975 352.391C643.559 368.511 631.332 380.335 615.894 389.143C592.888 402.269 567.332 404.333 541.859 405.738C521.956 406.836 501.947 405.989 481.523 405.928C424.847 405.863 368.634 405.865 312.42 405.925C310.33 405.927 308.24 406.485 306.136 406.811C306.123 406.838 306.158 406.887 306.024 406.576C305.243 406.228 304.595 406.19 303.491 406.057C273.122 405.98 243.197 405.473 213.302 406.192C191.297 406.721 171.951 401.025 155.235 386.586C155.192 386.585 155.164 386.505 155.193 386.172C152.029 382.017 148.836 378.195 145.508 374.057C142.609 368.744 139.846 363.748 137.095 358.545C137.108 358.338 136.903 357.978 136.965 357.577C135.698 351.412 134.369 345.648 133.054 339.448C133.001 336.676 132.934 334.341 132.942 331.571C133.468 326.264 133.236 321.202 134.53 316.566C136.561 309.284 139.621 302.288 142.198 295.145C142.149 295.118 142.126 295.226 142.404 295.118C142.792 294.654 142.903 294.3 143.096 293.813C143.179 293.68 143.106 293.376 143.436 293.242C145.262 290.894 146.757 288.68 148.266 286.416C148.279 286.367 148.187 286.322 148.481 286.233C148.977 285.795 149.181 285.447 149.661 284.932C171.266 259.789 197.634 250.434 229.661 259.428C237.948 230.732 268.159 212.331 299.654 230.52C305.787 216.894 311.956 203.187 318.125 189.48C318.385 189.193 318.644 188.906 319.269 188.179C322.783 183.464 325.78 179.067 329.107 174.935C340.01 161.395 352.857 149.95 367.175 140.129C367.175 140.129 367.087 140.075 367.451 140.064C388.3 126.889 410.869 120.577 435.067 119.762C456.844 119.028 478.074 121.974 497.419 132.398C508.6 138.423 518.81 146.25 529.622 153.569C537.02 161.632 544.252 169.392 551.605 177.49C567.092 199.478 577.322 223.063 578.196 249.36C588.207 248.754 597.579 248.186 606.951 247.619ZM350.916 340.066C350.916 340.066 350.686 340.289 350.914 340.919C355.979 346.208 360.884 351.666 366.175 356.718C369.022 359.436 372.25 362.099 375.799 363.673C385.648 368.04 394.774 366.044 402.506 358.708C409.968 351.627 417.097 344.195 424.413 336.957C442.257 319.302 460.125 301.671 478.497 283.899C478.674 283.608 478.852 283.316 479.645 282.777C481.813 280.549 483.981 278.32 486.77 275.852C494.004 268.277 501.891 261.21 508.284 252.982C514.413 245.093 515.046 235.665 509.827 226.702C504.895 218.234 497.487 213.861 487.4 214.824C480.052 215.525 475.056 220.224 470.14 225.01C457.255 237.556 444.236 249.969 431.587 262.75C416.488 278.007 401.719 293.591 386.404 309.45C381.124 304.108 377.059 299.986 372.983 295.872C363.143 285.942 353.631 275.654 343.35 266.203C335.115 258.632 324.117 259.28 315.653 266.603C305.44 275.441 303.737 290.278 312.504 300.594C319.486 308.811 327.356 316.273 335.071 324.703C340.286 329.907 345.501 335.112 350.916 340.066Z" fill="#FCFCFC"/>
<path d="M143.065 293.269C143.065 293.269 143.138 293.573 142.835 293.863C142.383 294.475 142.234 294.797 142.085 295.119C142.085 295.119 142.108 295.011 141.788 295.022C139.765 297.103 137.425 298.92 136.484 301.292C134.106 307.287 132.333 313.524 130.368 319.68C129.501 322.396 128.76 325.153 127.96 328.266C127.96 329.393 127.959 330.144 127.959 330.896C126.439 332.27 124.433 333.372 123.48 335.066C118.437 344.023 118.423 353.793 119.386 363.666C119.594 365.805 120.344 368.129 119.784 370.062C117.809 376.89 120.681 382.637 123.009 388.64C123.814 390.713 123.983 393.164 123.903 395.424C123.673 401.868 125.823 407.17 129.679 412.397C134.184 418.503 137.499 425.475 141.598 431.9C142.861 433.878 145.114 435.195 146.71 436.995C148.462 438.971 150.946 440.986 151.35 443.292C151.849 446.144 150.428 448.945 146.431 449.369C144.188 449.607 142.072 451.042 139.898 451.938C140.668 452.802 141.437 453.666 142.207 454.53C132.252 453.276 122.234 452.369 112.373 450.593C108.483 449.892 104.994 447.129 101.227 445.532C97.6018 443.994 93.6766 443.094 90.1886 441.315C76.0016 434.078 63.704 424.651 52.772 412.761C44.7178 404.001 38.4434 394.329 32.6171 384.316C29.0262 378.146 26.8454 370.94 25.1577 363.928C22.8844 354.484 21.4269 344.814 20.1702 335.169C19.6455 331.141 20.4706 326.924 20.8055 322.803C21.1001 319.176 21.4268 315.542 21.9882 311.95C23.0033 305.457 24.1626 298.984 25.3953 292.528C25.5095 291.93 26.5816 291.515 27.634 291.068C28.0591 291.121 28.3606 291.136 28.3606 291.136C28.3606 291.136 27.9635 290.89 27.9635 290.89C29.2414 285.681 29.6791 280.054 32.0111 275.37C34.8878 269.592 39.1102 264.416 43.1708 259.314C48.2359 252.95 53.6264 246.833 59.0919 240.805C61.0321 238.665 63.7013 237.205 65.8607 235.24C68.0185 233.276 69.683 230.679 72.0381 229.041C79.8118 223.637 87.2899 217.555 97.3952 216.805C99.3116 216.662 101.096 215.193 103.018 214.579C106.872 213.347 110.744 212.132 114.674 211.184C121.159 209.619 121.642 208.667 121.14 202.237C120.689 196.445 120.717 190.573 121.118 184.777C121.279 182.437 123.32 180.29 123.936 177.907C125.82 170.618 127.345 163.218 131.597 156.814C132.186 155.926 133.284 155.366 134.174 154.691C134.954 154.1 136.518 153.472 136.463 153.012C135.797 147.453 141.873 145.764 143.04 141.305C143.23 140.576 143.81 139.78 144.441 139.362C152.587 133.962 160.774 128.626 168.95 123.272C169.228 123.089 169.46 122.791 169.761 122.696C175.981 120.742 182.184 118.729 188.443 116.907C191.405 116.044 194.478 114.986 197.495 115C206.705 115.045 215.913 115.567 225.122 115.905C225.454 115.917 225.857 115.824 226.108 115.977C236.139 122.072 248.437 121.629 258.585 127.19C261.786 128.944 263.958 132.719 268.693 131.164C277.713 138.182 287.02 144.902 295.108 152.861C305.329 162.919 313.174 174.863 318.033 188.971C311.915 203.08 305.746 216.787 299.613 230.414C268.118 212.225 237.908 230.626 229.62 259.322C197.593 250.327 171.225 259.682 149.331 284.928C148.559 285.536 148.353 285.876 148.146 286.215C148.146 286.215 148.239 286.26 147.948 286.092C142.097 285.853 144.475 290.745 143.065 293.269ZM129.649 317.041C129.574 317.087 129.5 317.132 129.649 317.041Z" fill="#1E9ACC"/>
<path d="M529.456 153.266C518.81 146.25 508.6 138.423 497.419 132.398C478.074 121.974 456.844 119.028 435.067 119.762C410.869 120.577 388.3 126.889 367.463 140.114C366.953 134.326 371.715 133.724 375.601 132.016C378.32 130.822 380.77 129.03 383.45 127.73C386.105 126.443 388.805 125.051 391.645 124.381C402.484 121.823 413.312 119.039 424.299 117.355C430.041 116.475 436.149 118.29 442.019 117.869C455.147 116.929 467.934 119.004 480.411 122.315C488.38 124.429 495.86 128.494 503.437 131.953C510.8 135.316 517.874 139.343 525.337 142.449C529.356 144.122 531.348 140.491 533.385 137.591C534.939 135.377 534.935 131.314 539.69 132.025C539.689 134.083 539.288 136.129 538.519 138.577C534.339 140.508 531.794 143.023 531.14 146.735C533.561 148.082 535.353 149.08 537.931 150.514C534.086 151.763 531.771 152.514 529.456 153.266Z" fill="#264A67"/>
<path d="M366.739 140.093C352.857 149.95 340.01 161.395 329.107 174.935C325.78 179.067 322.783 183.464 319.337 187.89C321.387 183.68 323.699 179.3 326.118 174.979C326.494 174.309 327.972 173.816 327.907 173.406C326.988 167.635 332.152 167.601 335.047 165.165C339.264 161.615 342.465 156.887 346.463 153.041C349.998 149.64 354.373 147.08 357.734 143.54C360.266 140.873 362.7 139.405 366.739 140.093Z" fill="#264A67"/>
<path d="M330.472 164.517C330.489 164.552 330.455 164.482 330.472 164.517Z" fill="#264A67"/>
<path d="M42.1394 405.765C49.1618 412.757 55.8248 420.161 63.2823 426.653C78.3996 439.812 95.9279 448.429 115.32 453.769C130.25 457.881 145.425 458.599 160.622 458.671C222.364 458.966 284.108 458.862 345.851 458.875C347.99 458.875 350.129 458.555 352.989 458.234C354.671 458.336 355.631 458.809 356.592 458.808C380.7 458.787 404.809 458.715 429.383 458.754C485.505 458.913 541.16 458.985 596.815 459.01C603.138 459.013 609.461 458.752 616.252 458.734C631.949 458.546 647.207 458.693 662.394 457.732C669.673 457.271 676.82 454.713 684.027 453.105C698.574 450.88 711.618 444.87 723.677 436.746C729.83 432.602 735.434 427.642 741.632 423.372C741.851 424.502 742.013 425.571 741.554 426.084C732.698 435.982 722.752 444.656 710.768 450.473C703.476 454.012 695.238 455.691 688.164 459.558C683.192 462.276 678.384 464.046 672.872 464.565C661.519 465.634 650.199 467.113 638.829 467.917C628.9 468.618 618.914 469.031 608.966 468.851C590.545 468.517 572.138 467.415 553.717 467.109C542.935 466.93 532.137 467.99 521.349 467.936C495.566 467.807 469.785 467.222 444.001 467.085C433.79 467.03 423.577 467.863 413.361 467.955C396.114 468.11 378.864 468.012 361.615 467.977C359.802 467.973 357.693 468.221 356.233 467.42C351.688 464.926 347.526 466.827 343.242 467.891C341.971 468.207 340.701 468.861 339.441 468.836C328.695 468.626 317.953 468.143 307.206 468.027C264.299 467.566 221.369 469.152 178.488 466.127C170.592 465.569 162.542 467.294 154.632 466.819C145.973 466.299 137.426 464.009 128.766 463.367C124.52 463.052 121.719 460.331 118.235 459.336C111.404 457.387 103.632 458.456 98.2543 452.32C98.1589 452.211 97.9401 452.138 97.7927 452.157C91.5055 452.955 88.6683 445.938 82.7415 445.573C80.2919 445.422 77.5814 444.332 75.5959 442.854C70.8952 439.356 66.3223 435.61 62.131 431.521C56.6222 426.146 51.3777 420.476 46.3291 414.664C44.192 412.204 40.8174 409.991 42.1394 405.765Z" fill="#ACB5BB"/>
<path d="M42.0838 405.429C40.8175 409.991 44.1921 412.204 46.3292 414.665C51.3778 420.476 56.6223 426.146 62.1311 431.521C66.3224 435.611 70.8953 439.356 75.596 442.854C77.5815 444.332 80.2919 445.422 82.7416 445.573C88.6684 445.938 91.5056 452.955 97.7928 452.157C97.9402 452.138 98.159 452.211 98.2543 452.32C103.632 458.456 111.405 457.387 118.235 459.337C121.719 460.331 124.52 463.052 128.766 463.367C137.426 464.009 145.973 466.299 154.633 466.819C162.542 467.294 170.592 465.57 178.488 466.127C221.369 469.152 264.299 467.566 307.206 468.027C317.953 468.143 328.695 468.626 339.441 468.836C340.701 468.861 341.971 468.207 343.242 467.891C347.526 466.828 351.688 464.926 356.233 467.42C357.693 468.221 359.802 467.973 361.615 467.977C378.864 468.012 396.114 468.11 413.361 467.955C423.577 467.863 433.79 467.03 444.002 467.085C469.785 467.222 495.566 467.807 521.349 467.936C532.137 467.99 542.935 466.93 553.717 467.109C572.138 467.415 590.545 468.517 608.966 468.851C618.914 469.031 628.9 468.618 638.829 467.917C650.199 467.113 661.519 465.634 672.872 464.565C678.384 464.046 683.192 462.276 688.164 459.558C695.238 455.691 703.477 454.012 710.768 450.473C722.753 444.656 732.699 435.982 741.554 426.084C742.013 425.571 741.851 424.502 741.967 423.3C750.129 412.41 758.304 401.911 766.99 391.454C767.003 394.33 766.503 397.165 766.001 400C766.001 400 766.001 400.002 765.702 400.167C762.497 404.341 759.668 408.408 756.672 412.348C750.608 420.322 744.861 428.593 738.182 436.022C734.294 440.347 729.083 443.646 724.061 446.75C715.478 452.054 706.959 457.778 697.694 461.569C689.308 465.001 680.016 466.365 671.023 468.128C662.654 469.77 654.176 470.935 645.7 471.92C641.096 472.456 636.397 472.165 631.741 472.271C623.613 472.456 615.487 472.72 607.358 472.842C594.118 473.042 580.875 473.127 567.634 473.313C560.083 473.42 552.525 473.926 544.985 473.71C537.718 473.503 530.479 472.422 523.212 472.082C519.941 471.928 516.626 472.954 513.339 472.91C498.463 472.708 483.584 471.896 468.716 472.09C446.214 472.384 423.723 473.549 401.22 473.877C393.684 473.987 386.132 472.187 378.579 472.119C367.462 472.017 356.338 472.668 345.219 473.064C344.469 473.091 343.739 473.677 342.546 474.002C334.802 474.343 327.51 474.658 320.223 475.062C319.467 475.104 318.74 475.671 317.572 475.995C315.43 475.995 313.716 475.995 311.895 475.617C308.377 473.567 305.006 472.424 301.535 475.995C297.048 475.995 293.025 475.994 288.793 475.659C286.723 474.883 284.856 474.035 283.003 474.066C270.121 474.276 257.236 475.089 244.363 474.92C212.838 474.507 181.317 473.739 149.799 472.936C143.872 472.785 137.944 471.974 132.057 471.168C125.68 470.295 119.35 469.073 112.666 468.001C111.889 467.999 111.445 467.998 110.927 467.654C110.073 466.774 109.341 466.145 108.507 465.714C97.7425 460.153 86.9229 454.697 76.2175 449.025C73.4978 447.584 70.9037 445.725 68.6428 443.635C62.4622 437.921 56.4727 431.999 50.4424 426.124C47.125 422.892 45.6089 417.614 39.9747 416.673C39.6255 415.572 39.3112 414.787 38.9984 413.599C37.7653 410.217 36.786 407.096 35.2323 404.294C33.2077 400.643 33.2175 397.289 35.7862 396.013C36.131 396.469 36.4758 396.926 37.0075 397.859C37.3518 398.601 37.5675 398.805 37.8413 398.948C39.2369 400.996 40.6326 403.044 42.0838 405.429Z" fill="#BBBDC0"/>
<path d="M684.018 452.647C676.82 454.713 669.673 457.271 662.394 457.732C647.207 458.693 631.949 458.546 616.369 458.434C619.727 454.98 623.515 452.037 627.131 448.895C638.671 438.868 648.649 427.64 654.486 413.016C655.861 412.288 657.267 411.796 657.804 410.823C659.381 407.966 662.251 405.664 660.6 401.402C660.055 399.993 663.143 397.45 663.913 395.2C665.477 390.624 666.701 385.922 667.871 381.223C669.732 373.753 672.919 366.601 672.108 358.523C671.546 352.919 672.001 347.213 672 341.553C671.999 332.774 672.995 323.841 667.601 315.953C667.013 315.092 666.885 313.665 667.056 312.581C667.594 309.176 665.686 307.779 662.949 306.609C667.657 301.481 672.302 296.694 677.046 292.066C677.413 292.123 677.682 292.022 677.978 291.932C678.004 291.942 677.949 291.955 678.169 291.844C678.666 291.53 678.856 291.267 678.93 290.937C678.898 290.932 678.872 290.873 678.872 290.873C683.443 292.457 684.551 295.854 680.945 298.768C677.725 301.371 677.366 304.34 678.458 307.625C680.008 312.293 682.394 316.697 683.77 321.404C684.861 325.136 685.037 329.146 685.504 333.046C686.703 343.053 688.836 353.081 688.705 363.076C688.587 372.138 685.596 381.124 684.583 390.223C683.748 397.723 682.531 405.39 685.812 412.796C686.566 414.499 686.923 416.714 686.559 418.51C685.729 422.6 685.612 426.317 688.158 429.956C688.819 430.901 688.513 432.752 688.22 434.093C686.901 440.143 685.427 446.16 684.018 452.647Z" fill="#7B8790"/>
<path d="M783.841 331.306C785.11 330.8 786.229 330.6 788.329 330.225C788.211 332.764 788.111 334.896 788.012 337.028C787.984 337.635 787.718 338.377 787.97 338.828C792.774 347.392 791.756 356.871 791.799 366.031C791.821 370.575 789.901 375.177 788.575 379.669C785.716 389.358 782.654 398.987 779.724 408.655C779.198 410.391 778.794 412.18 778.521 413.973C777.301 421.982 771.004 427.019 766.937 433.293C762.558 440.049 757.287 446.344 751.697 452.158C747.86 456.147 742.987 459.246 738.26 462.244C733.116 465.507 727.805 468.664 722.212 471.027C712.803 475 703.182 478.507 693.517 481.824C687.775 483.796 681.805 485.142 675.887 486.556C671.893 487.51 667.839 488.408 663.761 488.782C650.582 489.991 637.397 491.425 624.183 491.891C603.082 492.634 581.957 492.769 560.84 492.943C554.124 492.998 547.402 492.077 540.684 492.103C529.968 492.143 519.253 492.837 508.538 492.827C492.99 492.813 477.443 492.344 461.894 492.232C457.44 492.2 452.978 493.009 448.526 492.948C434.145 492.753 419.767 492.08 405.388 492.073C391.765 492.066 378.141 492.937 364.518 492.927C349.728 492.916 334.94 492.214 320.148 492.035C306.566 491.87 292.978 491.87 279.396 492.036C265.104 492.21 250.81 493.093 236.527 492.902C213.684 492.597 190.85 491.142 168.012 491.147C148.002 491.151 128.646 486.984 109.158 483.65C102.737 482.551 96.6284 479.425 90.4921 476.942C86.251 475.226 82.1946 473.048 78.0782 471.03C67.429 465.811 58.5847 458.263 49.5629 450.624C41.1836 443.529 35.0928 434.76 28.5235 426.451C23.6452 420.28 21.4241 411.989 18.1438 404.587C17.0816 402.19 16.6803 399.486 15.516 397.153C11.8306 389.766 9.79632 382.067 9.97095 373.764C10.1145 366.937 9.39738 360.029 10.2323 353.302C10.7139 349.422 13.5181 345.83 15.6376 342.485C16.1178 345.638 16.4209 348.421 16.3241 351.189C15.9532 361.794 15.4538 372.395 15.0527 383.372C17.6319 390.941 19.977 398.206 22.7457 405.306C25.1436 411.455 26.9964 418.203 30.9012 423.299C39.0364 433.914 47.9115 444.065 57.3273 453.57C68.843 465.195 84.2076 471.093 98.8216 477.366C109.441 481.925 121.367 483.814 132.902 485.751C142.503 487.364 152.375 487.665 162.143 487.892C170.426 488.085 178.73 487.099 187.026 487.085C194.488 487.072 201.949 487.91 209.413 487.955C230.835 488.083 252.259 488 273.682 488C309.773 488 345.864 487.89 381.954 488.043C402.25 488.129 422.543 488.825 442.839 488.909C454.389 488.957 465.941 488.095 477.493 488.045C507.916 487.912 538.34 488 568.763 488C580.523 488 592.285 488.12 604.043 487.972C622.173 487.743 640.303 487.405 658.428 486.932C662.041 486.838 665.749 486.332 669.214 485.329C683.938 481.067 698.844 477.77 713.01 471.231C726.501 465.003 738.81 457.612 749.138 447.164C755.254 440.976 760.746 434.073 765.825 426.995C769.146 422.365 770.565 416.337 774.013 411.837C779.513 404.66 780.364 396.065 782.998 387.57C783 385.429 783.001 383.716 783.315 381.948C784.084 381.261 784.541 380.63 784.998 379.554C784.999 376.74 784.999 374.37 785.266 371.713C785.687 369.283 785.842 367.14 785.998 364.548C785.998 361.4 785.998 358.701 785.998 355.551C785.154 351.352 788.248 346.523 782.95 343.999C783.197 339.87 783.444 335.741 783.841 331.306Z" fill="#D6D7D8"/>
<path d="M111.001 467.998C111.445 467.998 111.889 467.999 112.744 468.351C114.571 469.459 115.913 470.433 117.413 470.939C127.937 474.491 138.758 475.879 149.88 476.076C170.473 476.442 191.053 477.514 211.645 477.939C226.803 478.251 241.973 477.987 257.137 478.017C258.957 478.02 260.796 478.481 262.595 478.336C271.403 477.629 280.2 476.788 289.001 475.994C293.025 475.994 297.048 475.995 301.832 476.264C305.728 476.354 308.865 476.174 312.002 475.994C313.716 475.995 315.43 475.995 317.872 476.267C323.844 476.931 329.082 477.404 334.331 477.684C337.417 477.849 340.538 477.918 343.607 477.634C345.77 477.434 347.872 476.57 350.47 476.002C438.372 476.001 525.806 476.012 613.24 475.962C617.034 475.959 620.829 475.41 624.62 475.089C628.245 474.781 631.867 474.16 635.488 474.178C640.334 474.203 645.205 475.192 650.019 474.924C667.492 473.953 684.261 469.979 700.71 463.789C716.198 457.961 730.195 449.957 741.82 438.404C750.471 429.808 757.893 419.968 763.069 408.735C764.346 405.962 765.039 402.92 766.001 400.002C766.001 400.002 766 400 766.363 399.948C771.407 397.567 769.998 392.164 772.377 388.747C774.08 386.302 773.375 384.606 771.777 382.751C772.036 381.989 772.295 381.226 773.012 380.182C773.568 379.246 773.667 378.59 773.767 377.935C775.635 372.116 777.504 366.297 779.93 360.375C781.089 362.374 782.341 364.53 782.172 366.567C781.583 373.69 780.961 380.832 778.106 387.576C775.423 393.911 773.092 400.394 770.599 406.809C769.408 409.876 768.2 412.937 766.999 416.249C766.998 416.499 766.997 416.998 766.662 417.066C765.884 418.09 765.442 419.045 764.664 420.064C758.197 427.223 752.833 435.23 745.748 441.193C736.108 449.308 725.762 457.053 714.593 462.753C703.207 468.564 690.697 472.644 678.253 475.804C658.201 480.895 637.385 479.548 616.897 480.877C606.187 481.571 595.393 480.885 584.64 481.044C578.342 481.137 572.049 481.952 565.757 481.927C557.962 481.897 550.166 481.007 542.375 481.062C519.917 481.219 497.461 481.794 475.003 481.934C466.045 481.989 457.083 481.057 448.122 481.044C387.681 480.959 327.239 480.947 266.798 481.045C254.837 481.065 242.88 481.773 230.918 481.949C225.805 482.024 220.684 481.406 215.565 481.368C211.762 481.34 207.945 482.048 204.155 481.894C191.894 481.395 179.647 480.512 167.385 480.048C158.902 479.726 150.237 480.871 141.947 479.537C129.629 477.556 117.434 474.432 105.439 470.93C92.182 467.059 79.8007 460.988 68.468 452.984C63.9048 449.76 59.485 446.334 55 443C55 443 55.0006 443 54.9565 442.658C52.6085 440.21 50.3045 438.105 48.0003 435.625C48 434.5 48 433.75 48.3816 433.001C50.0823 433.52 51.6632 433.733 52.6778 434.605C59.2802 440.282 65.6206 446.268 72.3114 451.834C82.5488 460.351 95.6071 463.151 107.392 468.531C108.32 468.955 109.785 468.203 111.001 467.998Z" fill="#C9CACC"/>
<path d="M676.947 291.906C672.302 296.694 667.657 301.481 662.668 306.609C661.946 306.948 661.569 306.945 661.191 306.943C659.175 284.881 648.529 267.991 630.182 255.339C635.075 253.952 641.325 249.073 644.874 255.717C647.778 261.151 654.452 261.292 656.932 267.243C658.038 269.9 664.153 270.348 667.847 272.108C669.324 272.811 671.525 274.416 671.461 275.497C671.229 279.458 673.314 278.879 675.844 278.61C680.392 278.125 684.968 277.892 689.839 277.84C687.572 280.785 684.966 283.413 682.436 286.112C681.221 287.409 680.15 288.842 678.942 290.543C678.872 290.873 678.898 290.932 678.688 291.023C678.301 291.394 678.125 291.674 677.949 291.955C677.949 291.955 678.004 291.942 677.727 291.899C677.282 291.872 677.115 291.889 676.947 291.906Z" fill="#495C68"/>
<path d="M767 416C768.2 412.937 769.408 409.876 770.599 406.809C773.092 400.394 775.423 393.911 778.106 387.576C780.961 380.832 781.583 373.69 782.172 366.567C782.341 364.53 781.089 362.374 780.164 360.097C779.89 359.495 779.941 359.068 780.354 358.269C781.477 357.265 782.237 356.632 783.373 356C784.498 356.001 785.248 356.002 785.998 356.002C785.998 358.701 785.998 361.4 785.636 364.643C785.183 367.458 785.091 369.729 785 372C784.999 374.37 784.999 376.74 784.685 379.608C783.916 380.738 783.459 381.37 783.002 382.002C783.001 383.716 783 385.429 782.647 387.645C779.867 393.396 777.722 398.8 774.926 403.843C772.59 408.056 772.494 413.832 767 416Z" fill="#CFD1D2"/>
<path d="M771.505 382.967C773.375 384.606 774.08 386.302 772.377 388.747C769.999 392.164 771.407 397.567 766.365 399.948C766.503 397.165 767.003 394.33 767.254 391.249C768.415 388.396 769.824 385.79 771.505 382.967Z" fill="#BEC0C4"/>
<path d="M785.998 355.551C785.247 356.002 784.498 356.001 783.323 355.694C782.299 354.922 781.699 354.455 781.099 353.989C781.607 350.895 782.114 347.802 782.786 344.354C788.248 346.523 785.154 351.352 785.998 355.551Z" fill="#D2D3D5"/>
<path d="M780.998 354.323C781.699 354.455 782.299 354.922 782.948 355.694C782.237 356.632 781.477 357.265 780.423 357.953C780.385 356.892 780.641 355.775 780.998 354.323Z" fill="#C9CACC"/>
<path d="M685.537 288.044C685.185 288.257 684.835 288.255 684.488 288.227C684.478 288.226 684.485 287.829 684.494 287.829C684.842 287.812 685.191 287.82 685.537 288.044Z" fill="#7B8790"/>
<path d="M773.559 378.129C773.668 378.59 773.568 379.246 773.163 379.92C773.022 379.4 773.187 378.862 773.559 378.129Z" fill="#BBBDC0"/>
<path d="M529.622 153.569C531.771 152.514 534.086 151.763 537.931 150.514C535.353 149.08 533.561 148.082 531.14 146.735C531.794 143.023 534.339 140.508 538.508 138.978C551.038 141.102 561.739 146.517 571.419 153.97C584.995 164.422 594.844 177.923 600.599 193.889C605.614 207.8 608.535 222.339 605.921 237.695C602.456 239.094 600.466 238.154 598.361 235.98C592.377 229.799 588.563 222.618 586.777 214.217C586.35 212.207 585.128 210.303 584.009 208.513C581.13 203.907 577.63 199.616 575.32 194.752C574.019 192.012 573.262 190.464 570.084 191.447C567.236 192.329 565.854 191.512 566.74 188.274C567.511 185.454 566.637 182.517 563.715 182.696C560.58 182.887 559.218 181.249 557.219 179.754C555.578 178.526 553.415 177.993 551.484 177.153C544.252 169.392 537.02 161.632 529.622 153.569Z" fill="#435967"/>
<path d="M551.605 177.49C553.415 177.993 555.578 178.526 557.219 179.754C559.218 181.249 560.58 182.887 563.715 182.696C566.637 182.517 567.511 185.454 566.74 188.274C565.854 191.512 567.236 192.329 570.084 191.447C573.262 190.464 574.019 192.012 575.32 194.752C577.63 199.616 581.13 203.907 584.009 208.513C585.128 210.303 586.35 212.207 586.777 214.217C588.563 222.618 592.377 229.799 598.361 235.98C600.466 238.154 602.456 239.094 605.649 238.01C607.026 240.96 604.066 244.256 606.87 247.343C597.579 248.186 588.207 248.754 578.196 249.36C577.322 223.063 567.092 199.478 551.605 177.49Z" fill="#3F5361"/>
<path d="M48 433C48 433.75 48 434.5 47.6344 435.618C46.3591 435.65 45.1527 435.579 44.5849 434.94C37.7449 427.246 31.0864 419.406 27.3633 409.593C24.3909 401.757 21.5429 393.873 18.4058 386.104C17.8871 384.82 16.1672 384.021 15.0024 382.998C15.4539 372.395 15.9532 361.794 16.3241 351.189C16.4209 348.421 16.1178 345.638 15.9923 342.433C16.1095 338.571 16.2326 335.138 16.5863 331.379C17.3333 335.628 17.8648 340.2 18.3633 344.775C19.8558 358.474 23.7842 371.513 28.7139 384.549C27.6239 384.252 26.8195 383.613 26.0051 382.611C24.8182 380.26 23.6414 378.274 22.4645 376.288C21.7632 376.524 21.0619 376.759 20.3606 376.995C21.2346 381.479 21.633 386.125 23.0882 390.412C25.6115 397.845 28.5761 405.152 31.7758 412.324C33.555 416.312 35.8607 420.169 38.5249 423.627C40.927 426.744 44.141 429.235 47.1174 432.212C47.4404 432.682 47.6944 432.875 48 433ZM18.5408 362.825C18.1916 362.82 17.8423 362.815 17.4931 362.81C17.4911 362.955 17.4791 363.226 17.4887 363.227C17.8361 363.255 18.1855 363.257 18.5408 362.825ZM18.4603 367.175C18.8093 367.18 19.1584 367.188 19.5064 367.171C19.5153 367.17 19.5213 366.773 19.5118 366.773C19.1646 366.745 18.8154 366.742 18.4603 367.175Z" fill="#CFD1D2"/>
<path d="M17.0358 313.363C17.0485 313.048 17.5363 313.008 17.7805 312.992C18.036 313.726 18.0473 314.477 17.9488 315.588C17.567 315.192 17.295 314.435 17.0358 313.363Z" fill="#E4E4E4"/>
<path d="M136.903 357.978C136.903 357.978 137.108 358.338 137.071 358.951C137.028 360.379 137.022 361.193 136.774 362.184C134.95 364.414 135.69 365.142 138.261 365.19C138.681 366.276 138.859 367.136 138.771 368.254C138.729 374.972 139.74 381.016 143.075 386.934C148.152 395.943 154.563 403.46 161.659 410.994C170.588 420.473 181.996 423.84 193.186 426.508C205.74 429.501 219.117 429.268 232.162 429.886C239.08 430.214 246.083 428.802 252.995 429.168C271.787 430.162 290.555 431.629 309.322 433.048C313.15 433.337 316.931 434.237 321.591 434.994C322.84 432.329 325.198 432.449 327.996 435.198C328.473 435.667 330.064 435.002 331.418 435.047C334.79 438.524 337.884 441.815 341.044 445.39C341.685 446.106 342.26 446.535 343.027 447.194C343.834 448.201 344.45 448.979 345.081 450.121C346.094 451.317 347.091 452.148 348.299 453.083C348.77 453.383 348.936 453.641 349.009 453.959C347.603 454.973 346.3 456.617 344.771 456.865C341.883 457.333 338.865 456.997 335.435 456.642C334.548 454.262 334.126 452.234 333.675 450.059C332.704 450.134 331.565 449.909 330.772 450.333C325.963 452.901 321.365 452.789 316.674 449.954C315.483 449.234 313.83 449.169 312.368 449.024C304.666 448.256 296.961 447.522 289.25 446.853C284.633 446.452 279.926 446.615 275.396 445.783C264.011 443.691 252.716 442.295 241.007 442.775C227.548 443.327 214.135 443.037 200.553 440.516C189.619 438.487 179.242 437.125 170.779 429.353C170.076 428.708 169.022 428.462 168.216 427.908C165.272 425.886 162.208 423.999 159.47 421.723C151.222 414.87 145.385 406.01 139.685 397.099C138.11 394.637 136.953 391.814 136.098 389.007C134.658 384.28 132.95 379.485 132.569 374.623C132.085 368.463 132.814 362.209 133.354 356.001C134.759 356.664 135.831 357.321 136.903 357.978Z" fill="#1D8CB8"/>
<path d="M340.978 445.105C337.884 441.815 334.79 438.524 331.336 434.722C328.664 431.475 326.352 428.74 324.424 426.004C326.754 426.811 329.086 427.187 330.57 428.512C334.634 432.143 338.78 432.725 343.827 430.778C345.775 430.027 348.35 430.439 350.538 430.854C356.858 432.053 363.083 434.02 368.878 428.978C369.864 428.12 372.28 428.604 373.96 428.901C378.681 429.733 384.093 432.759 387.906 431.344C395.479 428.536 403.451 434.357 410.53 429.164C411.319 428.585 413.506 430.05 415.085 430.373C416.962 430.756 419.264 431.74 420.72 431.057C428.601 427.359 436.918 428.237 445.167 427.939C449.822 427.771 452.901 429.276 453.996 434.323C453.99 435.092 453.986 435.531 453.62 436.023C451.395 437.058 449.173 437.674 447.736 439.088C442.599 444.145 437.731 449.475 432.755 454.696C431.488 456.026 430.197 457.334 428.917 458.652C404.809 458.715 380.7 458.787 356.592 458.808C355.631 458.809 354.671 458.336 353.292 457.966C351.791 456.599 350.71 455.349 349.318 454.029C348.936 453.641 348.77 453.383 348.223 452.758C346.979 451.472 346.022 450.614 345.065 449.756C344.45 448.979 343.834 448.201 343.01 446.89C342.194 445.939 341.586 445.522 340.978 445.105Z" fill="#264A67"/>
<path d="M133.021 355.995C132.814 362.209 132.085 368.463 132.569 374.623C132.95 379.485 134.658 384.28 136.098 389.007C136.953 391.814 138.11 394.637 139.685 397.099C145.385 406.01 151.222 414.87 159.47 421.723C162.208 423.999 165.272 425.886 168.216 427.908C169.022 428.462 170.076 428.708 170.779 429.353C179.242 437.125 189.619 438.487 200.553 440.516C214.135 443.037 227.548 443.327 241.007 442.775C252.716 442.295 264.011 443.691 275.396 445.783C279.926 446.615 284.633 446.452 289.25 446.853C296.961 447.522 304.666 448.256 312.368 449.024C313.83 449.169 315.483 449.234 316.674 449.954C321.365 452.789 325.963 452.901 330.772 450.333C331.565 449.909 332.704 450.134 333.675 450.059C334.126 452.234 334.548 454.262 334.97 456.633C331.958 456.982 328.944 456.987 325.444 456.581C324.047 455.452 323.147 454.134 322.22 454.114C314.467 453.945 306.705 453.906 298.956 454.144C297.934 454.176 296.968 455.993 295.976 456.983C259.195 456.983 222.414 456.983 185.098 456.983C186.914 451.239 183.942 449.605 179.639 448.99C178.68 448.853 177.218 448.735 176.902 448.131C172.701 440.097 162.768 441.539 157.109 436.025C152.738 431.766 148.3 427.563 144.12 423.12C137.299 415.869 133.819 406.634 130.064 397.696C128.519 394.018 128.793 389.595 128.096 385.535C127.18 380.206 125.7 374.935 125.266 369.573C124.945 365.618 125.97 361.564 126.284 357.545C126.551 354.135 126.658 350.712 126.855 346.917C127.082 346.917 127.916 346.917 128.313 346.917C128.313 341.768 128.313 336.737 128.156 331.354C128 330.251 128 329.5 128.394 328.376C131.849 327.722 132.138 329.681 131.727 332.298C131.313 336.957 131.071 341.301 131.122 345.643C131.132 346.44 132.331 347.223 132.986 348.456C133.001 351.264 133.011 353.63 133.021 355.995Z" fill="#1B90BF"/>
<path d="M26.0152 382.975C26.8195 383.613 27.6239 384.252 28.741 384.93C29.0538 384.97 29.0104 384.991 29.1001 385.16C29.3347 385.575 29.5295 385.773 29.774 385.923C31.7316 389.067 33.6891 392.211 35.7164 395.684C33.2175 397.289 33.2077 400.643 35.2323 404.294C36.786 407.096 37.7653 410.217 38.65 413.549C36.5313 411.432 34.384 409.145 33.0694 406.452C29.9242 400.009 27.0604 393.419 24.3898 386.765C24.0283 385.864 25.4299 384.256 26.0152 382.975Z" fill="#C2C6C8"/>
<path d="M296.447 456.992C296.968 455.993 297.934 454.176 298.956 454.144C306.705 453.906 314.467 453.945 322.22 454.114C323.147 454.134 324.047 455.452 324.992 456.576C315.656 456.989 306.287 456.994 296.447 456.992Z" fill="#1D8CB8"/>
<path d="M148.169 455.948C147.447 455.535 147.063 455.14 146.679 454.745C147.844 454.547 149.009 454.348 150.174 454.15C150.265 454.538 150.355 454.926 150.445 455.315C149.799 455.532 149.153 455.749 148.169 455.948Z" fill="#1E9ACC"/>
<path d="M29.7614 385.693C29.5294 385.774 29.3346 385.575 29.1003 385.136C29.3343 385.008 29.5802 385.18 29.7614 385.693Z" fill="#CFD1D2"/>
<path d="M37.8111 398.709C37.5675 398.805 37.3519 398.601 37.1029 398.129C37.3443 397.998 37.6008 398.181 37.8111 398.709Z" fill="#C2C6C8"/>
<path d="M334.831 324.07C327.356 316.273 319.486 308.811 312.504 300.594C303.737 290.278 305.44 275.441 315.653 266.603C324.117 259.28 335.115 258.632 343.35 266.203C353.631 275.654 363.143 285.942 372.983 295.872C377.059 299.986 381.124 304.108 386.404 309.45C401.719 293.591 416.488 278.007 431.587 262.75C444.236 249.969 457.255 237.556 470.14 225.01C475.056 220.224 480.052 215.525 487.4 214.824C497.487 213.861 504.895 218.234 509.827 226.702C515.046 235.665 514.413 245.093 508.284 252.982C501.891 261.21 494.004 268.277 486.081 275.952C481.716 276.957 478.588 278.362 479.029 283.025C478.852 283.316 478.674 283.608 477.872 283.962C476.151 284.374 474.773 284.416 474.001 285.121C468.054 290.551 462.097 295.983 456.389 301.661C448.886 309.122 441.457 316.67 434.29 324.451C430.062 329.041 423.755 331.257 420.819 337.45C419.358 340.53 416.026 342.757 413.429 345.255C410.738 347.843 407.338 349.889 405.252 352.874C398.374 362.716 388.796 366.066 377.939 361.351C374.063 359.667 370.356 357.329 367.047 354.693C364.516 352.677 363.006 349.409 360.547 347.264C357.529 344.631 353.996 342.588 350.686 340.289C350.686 340.289 350.916 340.066 350.88 339.794C350.385 338.203 350.283 336.545 349.406 335.626C346.15 332.209 342.731 328.93 339.169 325.834C338.054 324.865 336.295 324.637 334.831 324.07Z" fill="#224D6E"/>
<path d="M306.149 406.784C308.24 406.485 310.33 405.927 312.42 405.925C368.634 405.865 424.847 405.863 481.488 406.277C480.809 408.271 479.828 409.95 478.566 411.381C476.826 413.355 474.874 415.142 472.755 417.123C472 417.494 471.503 417.753 470.614 418.063C463.515 418.348 456.787 419.021 450.103 418.718C438.3 418.184 426.676 416.096 414.681 416.762C397.988 417.69 381.204 416.976 364.46 417.013C349.544 417.046 334.628 417.121 319.714 417.299C319.103 417.306 318.506 418.555 317.565 419.188C316.152 418.433 315.078 417.715 313.966 416.656C311.335 413.137 308.742 409.961 306.149 406.784Z" fill="#1F3F58"/>
<path d="M473.012 417.01C474.874 415.142 476.826 413.355 478.566 411.381C479.828 409.95 480.809 408.271 481.95 406.354C501.947 405.989 521.956 406.836 541.859 405.738C567.332 404.333 592.888 402.269 615.894 389.143C631.332 380.335 643.559 368.511 652.292 352.545C654.184 357.265 655.591 362.132 656.658 366.926C655.329 365.925 654.341 364.998 652.895 363.64C650.4 373.08 644.922 379.633 637.537 384.754C630.937 389.33 624.73 394.629 617.693 398.377C610.53 402.193 602.567 404.508 594.952 407.472C594.49 407.652 594.008 407.797 593.522 407.897C583.973 409.88 574.429 411.886 564.864 413.792C563.599 414.045 561.831 414.307 560.979 413.662C557.698 411.179 554.661 412.937 551.525 413.681C549.594 414.14 547.667 414.895 545.72 414.96C532.773 415.391 519.819 415.62 506.871 416.026C501.908 416.181 496.954 416.628 491.996 416.944C485.669 417.346 479.352 420.385 473.012 417.01Z" fill="#384C5B"/>
<path d="M306.136 406.811C308.742 409.961 311.336 413.137 313.529 416.659C310.074 417.298 307.019 417.593 305.389 417.75C302.146 416.56 299.976 415.01 297.892 415.119C282.724 415.908 267.519 413.353 252.317 416.734C244.51 418.47 236.136 417.693 228.016 417.957C226.739 417.998 225.424 417.622 224.164 417.293C221.428 416.578 218.759 415.358 215.988 415.073C206.864 414.137 196.903 419.053 188.817 411.043C180.793 411.274 174.871 406.167 168.622 402.455C162.934 399.076 157.69 394.617 153.115 389.812C149.702 386.228 147.666 381.333 145.008 377.011C145 377 144.978 376.983 144.976 376.662C144.962 375.913 144.949 375.485 145.116 374.89C145.296 374.722 145.643 374.373 145.643 374.373C148.836 378.195 152.029 382.017 155.079 386.31C155.05 386.717 155.164 386.652 155.277 386.587C171.951 401.025 191.297 406.721 213.302 406.192C243.197 405.473 273.122 405.98 303.705 406.29C304.969 406.708 305.563 406.798 306.158 406.887C306.158 406.887 306.123 406.838 306.136 406.811Z" fill="#16759D"/>
<path d="M656.999 367C655.592 362.132 654.184 357.265 652.46 352.243C658.247 340.012 661.066 327.112 661.654 313.678C661.74 311.712 661.356 309.725 661.19 307.346C661.569 306.945 661.947 306.948 662.605 306.95C665.686 307.779 667.594 309.176 667.056 312.581C666.885 313.665 667.013 315.092 667.602 315.953C672.995 323.841 671.999 332.774 672 341.553C672.001 347.213 671.546 352.919 672.108 358.523C672.919 366.601 669.732 373.753 667.871 381.223C666.701 385.922 665.477 390.624 663.913 395.2C663.143 397.45 660.055 399.993 660.601 401.402C662.251 405.664 659.381 407.966 657.804 410.823C657.267 411.796 655.861 412.288 654.601 412.656C655.874 405.199 657.397 398.087 658.95 390.509C658.32 382.363 657.66 374.681 656.999 367Z" fill="#707E88"/>
<path d="M350.8 340.604C353.996 342.588 357.529 344.631 360.547 347.264C363.006 349.409 364.516 352.677 367.047 354.693C370.356 357.329 374.063 359.667 377.939 361.351C388.796 366.066 398.374 362.716 405.252 352.874C407.338 349.889 410.738 347.843 413.429 345.255C416.026 342.757 419.358 340.53 420.819 337.45C423.755 331.257 430.062 329.041 434.29 324.451C441.457 316.67 448.886 309.122 456.389 301.661C462.097 295.983 468.054 290.551 474.001 285.121C474.773 284.416 476.151 284.374 477.616 284.027C460.125 301.671 442.257 319.302 424.413 336.957C417.097 344.195 409.968 351.627 402.506 358.708C394.774 366.044 385.648 368.04 375.799 363.673C372.249 362.099 369.022 359.436 366.175 356.718C360.884 351.666 355.979 346.208 350.8 340.604Z" fill="#3F5361"/>
<path d="M132 331.984C132.138 329.681 131.849 327.722 128.394 328C128.8 325.259 129.542 322.503 130.409 319.787C132.373 313.631 134.147 307.394 136.525 301.399C137.466 299.027 139.806 297.21 141.877 295.156C139.621 302.288 136.561 309.284 134.53 316.566C133.236 321.202 133.468 326.264 132.725 331.565C132.434 331.996 132 331.984 132 331.984Z" fill="#2595C0"/>
<path d="M334.951 324.386C336.295 324.637 338.054 324.865 339.169 325.834C342.731 328.93 346.15 332.209 349.406 335.626C350.283 336.545 350.385 338.203 350.779 339.919C345.501 335.112 340.286 329.907 334.951 324.386Z" fill="#3F5361"/>
<path d="M133.354 356.001C133.011 353.63 133.001 351.264 132.995 348.005C133.013 344.702 133.026 342.293 133.04 339.884C134.369 345.648 135.698 351.412 136.965 357.577C135.831 357.321 134.759 356.664 133.354 356.001Z" fill="#1580AF"/>
<path d="M133.054 339.447C133.027 342.293 133.013 344.702 132.99 347.562C132.331 347.223 131.132 346.44 131.122 345.643C131.071 341.301 131.313 336.957 131.727 332.298C132 331.984 132.434 331.996 132.651 332.001C132.934 334.341 133.001 336.676 133.054 339.447Z" fill="#1D8CB8"/>
<path d="M137.017 362.008C137.022 361.193 137.028 360.379 137.058 359.158C139.846 363.748 142.609 368.744 145.508 374.057C145.643 374.373 145.296 374.722 144.784 374.799C142.527 372.582 140.782 370.288 139.037 367.995C138.859 367.136 138.681 366.276 138.252 364.862C137.673 363.54 137.345 362.774 137.017 362.008Z" fill="#16759D"/>
<path d="M479.337 282.901C478.588 278.362 481.716 276.957 485.771 276.072C483.981 278.32 481.813 280.549 479.337 282.901Z" fill="#3F5361"/>
<path d="M143.436 293.242C144.515 290.852 142.138 285.96 147.975 286.249C146.757 288.68 145.262 290.894 143.436 293.242Z" fill="#2595C0"/>
<path d="M306.024 406.576C305.564 406.798 304.969 406.708 304.161 406.386C304.595 406.19 305.243 406.228 306.024 406.576Z" fill="#1F3F58"/>
<path d="M148.48 286.233C148.393 285.983 148.6 285.643 149.095 285.201C149.181 285.447 148.977 285.795 148.48 286.233Z" fill="#2595C0"/>
<path d="M142.404 295.118C142.275 294.904 142.423 294.582 142.792 294.102C142.903 294.3 142.792 294.654 142.404 295.118Z" fill="#2595C0"/>
<path d="M129.578 317.216C129.615 317.194 129.54 317.239 129.578 317.216Z" fill="#2595C0"/>
<path d="M28.0022 290.998C28.0043 290.997 28.4014 291.243 28.4014 291.243C28.4014 291.243 28.0999 291.227 28.0484 291.116C27.9969 291.004 28 291 28.0022 290.998Z" fill="#2595C0"/>
<path d="M526.542 148.479C526.567 148.525 526.516 148.434 526.542 148.479Z" fill="#435967"/>
<path d="M658.92 390.974C657.397 398.087 655.874 405.199 654.236 412.673C648.649 427.64 638.671 438.868 627.131 448.895C623.515 452.037 619.727 454.98 615.901 458.314C609.461 458.752 603.138 459.013 596.815 459.01C541.16 458.985 485.505 458.913 429.383 458.754C430.197 457.334 431.488 456.026 432.755 454.696C437.731 449.475 442.599 444.145 447.736 439.088C449.173 437.674 451.395 437.058 454.049 436.033C461.838 435.346 468.795 432.865 475.883 435.667C476.535 435.924 477.624 435.092 478.504 434.75C480.851 433.837 483.151 432.264 485.547 432.103C503.384 430.906 521.285 433.612 539.172 430.249C548.36 428.522 558.028 429.405 567.471 428.949C569.903 428.831 572.312 428.149 574.719 427.661C580.644 426.46 586.514 424.777 592.497 424.146C596.873 423.684 601.141 424.204 603.59 419.371C604.011 418.541 605.839 418.259 607.074 418.033C616.654 416.273 625.299 412.42 632.966 406.447C634.369 405.354 635.297 402.669 636.582 402.574C643.078 402.092 646.358 397.209 650.146 393.199C652.81 390.378 655.4 389.391 658.92 390.974Z" fill="#495C68"/>
<path d="M765.702 400.167C765.039 402.92 764.346 405.962 763.069 408.735C757.893 419.968 750.471 429.808 741.82 438.404C730.195 449.957 716.198 457.961 700.71 463.789C684.261 469.979 667.492 473.953 650.019 474.924C645.205 475.192 640.334 474.203 635.488 474.178C631.867 474.16 628.245 474.781 624.62 475.089C620.829 475.41 617.034 475.959 613.241 475.962C525.807 476.012 438.372 476.001 350.066 476.001C347.129 475.334 345.064 474.668 343 474.002C343.739 473.677 344.469 473.091 345.219 473.064C356.338 472.668 367.462 472.017 378.579 472.119C386.132 472.187 393.684 473.987 401.221 473.877C423.723 473.549 446.214 472.384 468.716 472.09C483.584 471.896 498.463 472.708 513.339 472.91C516.626 472.954 519.941 471.928 523.212 472.082C530.479 472.422 537.718 473.503 544.985 473.71C552.525 473.926 560.083 473.42 567.634 473.313C580.875 473.127 594.118 473.042 607.358 472.842C615.487 472.72 623.613 472.456 631.741 472.271C636.397 472.165 641.096 472.456 645.7 471.92C654.176 470.935 662.654 469.77 671.023 468.128C680.016 466.365 689.308 465.001 697.694 461.569C706.959 457.778 715.478 452.054 724.061 446.75C729.083 443.646 734.294 440.347 738.183 436.022C744.861 428.593 750.608 420.322 756.672 412.348C759.668 408.408 762.498 404.341 765.702 400.167Z" fill="#BEC0C4"/>
<path d="M288.793 475.659C280.2 476.788 271.403 477.629 262.595 478.336C260.796 478.481 258.957 478.02 257.137 478.017C241.973 477.987 226.803 478.251 211.646 477.939C191.053 477.514 170.473 476.442 149.88 476.076C138.758 475.879 127.937 474.491 117.413 470.939C115.913 470.433 114.571 469.459 113.078 468.352C119.35 469.073 125.68 470.295 132.057 471.168C137.944 471.974 143.872 472.785 149.799 472.936C181.317 473.739 212.838 474.507 244.363 474.92C257.236 475.089 270.121 474.276 283.003 474.066C284.856 474.035 286.723 474.883 288.793 475.659Z" fill="#C2C6C8"/>
<path d="M48.3816 433.001C47.6944 432.875 47.4404 432.682 47.1185 431.813C46.1089 429.08 45.3268 426.9 44.3014 424.842C42.9722 422.173 41.4491 419.602 40.0095 416.989C45.6089 417.614 47.125 422.892 50.4424 426.124C56.4727 431.999 62.4622 437.921 68.6427 443.634C70.9036 445.725 73.4978 447.584 76.2174 449.025C86.9229 454.697 97.7424 460.153 108.506 465.714C109.341 466.145 110.073 466.774 110.927 467.654C109.785 468.203 108.32 468.955 107.392 468.531C95.6072 463.151 82.5489 460.351 72.3115 451.834C65.6207 446.268 59.2802 440.282 52.6778 434.605C51.6632 433.733 50.0823 433.52 48.3816 433.001Z" fill="#C2C6C8"/>
<path d="M39.9747 416.673C41.4492 419.602 42.9723 422.174 44.3015 424.842C45.3269 426.9 46.1089 429.08 46.998 431.604C44.141 429.235 40.9271 426.744 38.5249 423.627C35.8607 420.169 33.555 416.312 31.7758 412.324C28.5761 405.152 25.6115 397.845 23.0882 390.412C21.633 386.125 21.2346 381.479 20.3606 376.995C21.0619 376.759 21.7632 376.524 22.4645 376.288C23.6414 378.274 24.8183 380.26 26.0051 382.611C25.4299 384.256 24.0283 385.864 24.3898 386.765C27.0605 393.419 29.9242 400.009 33.0695 406.452C34.384 409.145 36.5313 411.432 38.6484 413.953C39.3111 414.787 39.6255 415.572 39.9747 416.673Z" fill="#C9CACC"/>
<path d="M342.546 474.002C345.064 474.668 347.129 475.334 349.597 476.001C347.872 476.57 345.77 477.434 343.607 477.634C340.538 477.918 337.417 477.849 334.331 477.684C329.082 477.404 323.844 476.931 318.3 476.267C318.74 475.672 319.467 475.104 320.223 475.062C327.51 474.658 334.802 474.343 342.546 474.002Z" fill="#C2C6C8"/>
<path d="M311.895 475.618C308.865 476.174 305.729 476.354 302.295 476.264C305.006 472.425 308.377 473.567 311.895 475.618Z" fill="#C2C6C8"/>
<path d="M678.169 291.844C678.125 291.674 678.301 291.394 678.719 291.028C678.856 291.267 678.665 291.53 678.169 291.844Z" fill="#828D95"/>
<path d="M677.046 292.066C677.115 291.889 677.283 291.872 677.701 291.888C677.682 292.022 677.413 292.124 677.046 292.066Z" fill="#828D95"/>
<path d="M15.0527 383.372C16.1673 384.021 17.8872 384.82 18.4059 386.104C21.5429 393.873 24.3909 401.757 27.3634 409.593C31.0864 419.406 37.745 427.246 44.5849 434.94C45.1528 435.579 46.3591 435.65 47.6789 436.346C49.072 440.255 51.3198 442.415 55.0007 443C55.0007 443 55.0001 443 55.0075 443.365C55.5803 444.888 56.038 446.114 56.7275 447.192C63.7029 458.098 76.3408 460.547 86.3446 466.931C92.5276 470.877 100.898 470.614 105.874 477.073C106.485 477.867 108.311 477.814 109.597 477.984C115.304 478.739 121.031 479.354 126.729 480.166C135.213 481.376 143.643 483.371 152.161 483.845C167.419 484.696 182.725 484.719 198.012 484.977C205.839 485.109 213.671 485.118 221.497 484.973C233.787 484.744 246.073 484.126 258.361 484.078C267.239 484.044 276.118 484.923 284.998 484.955C317.402 485.07 349.808 484.883 382.211 485.043C402.329 485.143 422.443 485.843 442.561 485.927C454.104 485.976 465.648 485.172 477.196 485.04C491.775 484.873 506.361 484.808 520.937 485.062C532.042 485.257 543.134 486.194 554.239 486.432C558.155 486.517 562.098 485.065 566.023 485.089C575.315 485.145 584.604 485.948 593.893 485.924C604.765 485.897 615.638 485.36 626.507 484.95C632.136 484.738 637.762 484.379 643.383 483.983C648.003 483.657 652.62 483.253 657.224 482.749C661.543 482.276 665.858 481.721 670.146 481.029C675.272 480.202 680.57 479.781 685.43 478.121C693.052 475.519 700.491 472.284 707.785 468.847C717.749 464.151 727.899 459.646 737.208 453.839C743.257 450.065 748.155 444.313 753.173 439.069C756.119 435.992 758.47 432.288 760.75 428.653C762.449 425.945 763.603 422.897 765.336 419.932C766.114 418.909 766.556 417.953 766.998 416.998C766.998 416.998 766.999 416.499 766.999 416.249C772.495 413.832 772.59 408.056 774.926 403.843C777.722 398.8 779.867 393.396 782.646 388.073C780.364 396.065 779.514 404.66 774.013 411.837C770.565 416.337 769.146 422.365 765.825 426.995C760.746 434.073 755.254 440.976 749.138 447.164C738.81 457.612 726.501 465.003 713.01 471.231C698.844 477.77 683.938 481.067 669.214 485.329C665.749 486.332 662.041 486.838 658.428 486.932C640.303 487.405 622.173 487.743 604.043 487.972C592.285 488.12 580.523 488 568.763 488C538.34 488 507.916 487.912 477.493 488.045C465.941 488.095 454.389 488.957 442.839 488.909C422.543 488.825 402.25 488.129 381.954 488.043C345.864 487.89 309.773 488 273.682 488C252.259 488 230.835 488.083 209.413 487.955C201.949 487.91 194.488 487.072 187.027 487.085C178.731 487.099 170.426 488.085 162.143 487.892C152.375 487.665 142.503 487.364 132.902 485.751C121.367 483.814 109.441 481.925 98.8217 477.366C84.2077 471.093 68.8431 465.195 57.3274 453.57C47.9116 444.065 39.0365 433.914 30.9013 423.299C26.9965 418.203 25.1437 411.455 22.7458 405.306C19.9771 398.206 17.632 390.941 15.0527 383.372Z" fill="#D2D3D5"/>
<path d="M785.266 371.713C785.091 369.729 785.183 367.458 785.636 365.092C785.842 367.14 785.687 369.283 785.266 371.713Z" fill="#D2D3D5"/>
<path d="M783.315 381.948C783.459 381.37 783.915 380.738 784.685 380.052C784.541 380.63 784.084 381.261 783.315 381.948Z" fill="#D2D3D5"/>
<path d="M764.657 420C763.596 422.833 762.441 425.881 760.743 428.589C758.463 432.224 756.111 435.929 753.166 439.006C748.147 444.249 743.25 450.001 737.201 453.775C727.892 459.582 717.742 464.087 707.778 468.783C700.483 472.221 693.044 475.455 685.423 478.058C680.562 479.717 675.264 480.138 670.138 480.966C665.85 481.658 661.535 482.212 657.217 482.685C652.613 483.189 647.995 483.594 643.375 483.919C637.755 484.315 632.129 484.675 626.499 484.887C615.63 485.296 604.758 485.833 593.886 485.861C584.597 485.884 575.307 485.082 566.016 485.025C562.09 485.002 558.148 486.453 554.232 486.369C543.126 486.13 532.035 485.193 520.93 484.999C506.353 484.744 491.767 484.81 477.188 484.977C465.641 485.109 454.097 485.912 442.553 485.864C422.436 485.779 402.321 485.079 382.204 484.98C349.8 484.819 317.395 485.006 284.99 484.891C276.111 484.859 267.231 483.981 258.354 484.015C246.065 484.062 233.779 484.681 221.49 484.909C213.664 485.055 205.831 485.045 198.005 484.913C182.717 484.656 167.411 484.632 152.154 483.782C143.635 483.307 135.206 481.312 126.722 480.102C121.023 479.29 115.297 478.676 109.589 477.921C108.304 477.751 106.478 477.803 105.866 477.009C100.89 470.551 92.5201 470.813 86.3371 466.867C76.3333 460.483 63.6954 458.034 56.72 447.128C56.0305 446.05 55.5728 444.824 55 443.302C59.4776 446.27 63.8974 449.697 68.4606 452.92C79.7933 460.925 92.1746 466.996 105.431 470.867C117.426 474.369 129.622 477.493 141.94 479.474C150.23 480.807 158.894 479.663 167.378 479.984C179.64 480.448 191.886 481.332 204.148 481.83C207.937 481.984 211.755 481.277 215.557 481.305C220.677 481.342 225.797 481.96 230.911 481.885C242.872 481.71 254.83 481.001 266.79 480.982C327.232 480.883 387.673 480.896 448.115 480.981C457.075 480.993 466.037 481.926 474.995 481.87C497.454 481.731 519.909 481.156 542.368 480.998C550.159 480.943 557.954 481.833 565.749 481.864C572.042 481.888 578.334 481.073 584.632 480.98C595.385 480.821 606.179 481.508 616.89 480.813C637.377 479.484 658.194 480.831 678.246 475.74C690.69 472.58 703.2 468.5 714.586 462.689C725.754 456.989 736.1 449.244 745.741 441.13C752.825 435.167 758.19 427.16 764.657 420Z" fill="#CFD1D2"/>
<path d="M54.9565 442.658C51.3197 442.415 49.0719 440.255 48.0448 436.353C50.3046 438.105 52.6085 440.21 54.9565 442.658Z" fill="#CFD1D2"/>
<path d="M766.662 417.066C766.556 417.953 766.114 418.909 765.336 419.932C765.442 419.045 765.884 418.09 766.662 417.066Z" fill="#CFD1D2"/>
<path d="M18.5377 363.044C18.1855 363.257 17.8361 363.255 17.4886 363.227C17.4791 363.226 17.4911 362.955 17.4931 362.81C17.8423 362.815 18.1915 362.82 18.5377 363.044Z" fill="#C9CACC"/>
<path d="M18.4634 366.955C18.8154 366.742 19.1646 366.745 19.5117 366.773C19.5213 366.773 19.5152 367.17 19.5063 367.171C19.1584 367.188 18.8092 367.179 18.4634 366.955Z" fill="#C9CACC"/>
<path d="M138.771 368.254C140.782 370.288 142.527 372.582 144.604 374.967C144.949 375.485 144.962 375.913 144.858 376.717C144.833 377.07 144.925 377.046 145.017 377.022C147.666 381.333 149.702 386.228 153.115 389.812C157.69 394.617 162.934 399.076 168.622 402.455C174.871 406.167 180.793 411.274 188.817 411.043C196.903 419.053 206.864 414.137 215.988 415.073C218.759 415.358 221.428 416.578 224.164 417.293C225.424 417.622 226.739 417.998 228.016 417.957C236.136 417.693 244.51 418.47 252.317 416.734C267.519 413.353 282.724 415.908 297.892 415.119C299.976 415.01 302.146 416.56 305.389 417.75C307.019 417.593 310.074 417.298 313.567 417.001C315.078 417.715 316.153 418.433 317.571 419.425C317.914 419.7 317.99 420.173 318.097 420.342C318.372 420.723 318.581 420.885 318.888 421.227C318.949 421.456 319.037 421.923 319.137 422.152C319.43 422.667 319.688 422.87 320.209 423.198C320.94 423.58 321.473 423.754 322.21 424.134C322.94 424.879 323.467 425.419 323.993 425.982C323.992 426.005 324.041 426.006 324.041 426.006C326.352 428.74 328.664 431.475 331.058 434.536C330.064 435.002 328.473 435.667 327.996 435.198C325.198 432.449 322.84 432.329 321.592 434.994C316.931 434.237 313.15 433.337 309.322 433.048C290.555 431.629 271.787 430.162 252.995 429.168C246.083 428.802 239.08 430.214 232.162 429.886C219.117 429.268 205.74 429.501 193.186 426.508C181.996 423.84 170.588 420.473 161.66 410.994C154.563 403.46 148.152 395.943 143.075 386.934C139.74 381.016 138.73 374.972 138.771 368.254Z" fill="#1580AF"/>
<path d="M136.774 362.184C137.345 362.774 137.673 363.54 138.009 364.635C135.69 365.142 134.95 364.414 136.774 362.184Z" fill="#1580AF"/>
<path d="M345.081 450.121C346.022 450.614 346.979 451.472 348.012 452.655C347.091 452.148 346.094 451.317 345.081 450.121Z" fill="#2595C0"/>
<path d="M341.044 445.39C341.586 445.522 342.194 445.939 342.819 446.661C342.26 446.535 341.685 446.106 341.044 445.39Z" fill="#2595C0"/>
<path d="M658.95 390.509C655.4 389.391 652.81 390.378 650.146 393.199C646.358 397.209 643.078 402.092 636.582 402.574C635.297 402.669 634.369 405.354 632.966 406.447C625.299 412.42 616.654 416.273 607.074 418.033C605.839 418.259 604.011 418.541 603.59 419.371C601.141 424.204 596.873 423.684 592.497 424.146C586.514 424.777 580.644 426.46 574.719 427.661C572.312 428.149 569.903 428.831 567.471 428.949C558.028 429.405 548.36 428.522 539.172 430.249C521.285 433.612 503.384 430.906 485.547 432.103C483.151 432.263 480.851 433.837 478.504 434.75C477.624 435.092 476.535 435.924 475.883 435.667C468.795 432.865 461.838 435.346 454.412 435.98C453.986 435.531 453.99 435.092 454.291 434.171C460.061 428.463 465.533 423.237 471.005 418.011C471.503 417.753 472 417.494 472.755 417.123C479.352 420.385 485.669 417.346 491.996 416.944C496.954 416.628 501.908 416.181 506.871 416.026C519.819 415.62 532.773 415.391 545.72 414.96C547.667 414.895 549.594 414.14 551.525 413.681C554.661 412.937 557.698 411.179 560.979 413.662C561.831 414.307 563.599 414.045 564.864 413.792C574.429 411.886 583.973 409.88 593.522 407.897C594.008 407.797 594.49 407.652 594.952 407.472C602.567 404.508 610.53 402.193 617.693 398.377C624.73 394.629 630.937 389.33 637.537 384.754C644.922 379.633 650.4 373.08 652.895 363.64C654.341 364.998 655.329 365.925 656.658 366.926C657.659 374.681 658.32 382.363 658.95 390.509Z" fill="#3F5361"/>
<path d="M470.614 418.063C465.533 423.237 460.061 428.463 454.294 433.841C452.901 429.276 449.822 427.771 445.167 427.939C436.918 428.237 428.601 427.359 420.721 431.057C419.264 431.74 416.963 430.756 415.085 430.373C413.506 430.05 411.319 428.585 410.53 429.164C403.451 434.357 395.479 428.536 387.906 431.344C384.093 432.759 378.681 429.733 373.96 428.901C372.28 428.604 369.864 428.12 368.878 428.978C363.083 434.02 356.858 432.053 350.538 430.854C348.35 430.439 345.776 430.027 343.827 430.778C338.78 432.725 334.634 432.143 330.57 428.512C329.086 427.187 326.754 426.811 324.425 426.004C324.041 426.006 323.992 426.006 323.995 425.639C323.655 424.364 323.313 423.455 322.971 422.547C322.65 423.007 322.328 423.468 322.007 423.928C321.473 423.754 320.94 423.58 320.106 422.972C319.61 422.258 319.353 422.053 319.037 421.923C319.037 421.923 318.949 421.456 318.822 421.027C318.528 420.343 318.293 420.202 317.99 420.173C317.99 420.173 317.914 419.7 317.908 419.462C318.506 418.555 319.103 417.306 319.714 417.299C334.628 417.121 349.544 417.046 364.46 417.013C381.204 416.976 397.988 417.69 414.681 416.762C426.676 416.096 438.3 418.184 450.103 418.718C456.787 419.021 463.515 418.348 470.614 418.063Z" fill="#234662"/>
<path d="M157.48 391.47C157.518 391.451 157.442 391.489 157.48 391.47Z" fill="#1580AF"/>
<path d="M155.235 386.586C155.163 386.652 155.05 386.717 155.05 386.644C155.163 386.505 155.192 386.585 155.235 386.586Z" fill="#1580AF"/>
<path d="M322.21 424.134C322.328 423.468 322.65 423.007 322.971 422.547C323.313 423.455 323.655 424.364 323.995 425.616C323.467 425.419 322.94 424.879 322.21 424.134Z" fill="#264A67"/>
<path d="M319.137 422.152C319.353 422.053 319.61 422.258 319.908 422.764C319.688 422.87 319.43 422.667 319.137 422.152Z" fill="#16759D"/>
<path d="M318.096 420.342C318.293 420.202 318.528 420.343 318.762 420.797C318.581 420.885 318.372 420.723 318.096 420.342Z" fill="#16759D"/>
<path d="M145.008 377.011C144.925 377.046 144.833 377.07 144.859 377.038C144.978 376.983 144.999 377 145.008 377.011Z" fill="#16759D"/>
</svg>
